# xmcd
#
# Track frame offsets:
#	150
#	17577
#	35500
#	52051
#	74680
#	89773
#	106339
#	127285
#	145859
#	163445
#	179286
#
# Disc length: 2593 seconds
#
# Revision: 1
# Processed by: cddbd v1.5.2PL0 Copyright (c) Steve Scherf et al.
# Submitted via: audiograbber 1.83.01
#
DISCID=ab0a1f0b
DTITLE=Zane Williams - Overnight Success
DYEAR=2013
DGENRE=Country
TTITLE0=Overnight Success
TTITLE1=Sure Felt Like Goodbye
TTITLE2=On a Good Day
TTITLE3=When You've Got a Woman
TTITLE4=Damned
TTITLE5=The Simple Things
TTITLE6=Little Too Late
TTITLE7=Kissin'
TTITLE8=Hands of a Workin' Man
TTITLE9=Tired of Gettin' By
TTITLE10=While I Was Away
EXTD=
EXTT0=
EXTT1=
EXTT2=
EXTT3=
EXTT4=
EXTT5=
EXTT6=
EXTT7=
EXTT8=
EXTT9=
EXTT10=
PLAYORDER=
